<?xml version="1.0" standalone="no"?>
<!DOCTYPE svg PUBLIC "-//W3C//DTD SVG 20010904//EN"
 "http://www.w3.org/TR/2001/REC-SVG-20010904/DTD/svg10.dtd">
<svg version="1.0" xmlns="http://www.w3.org/2000/svg"
 width="2500.000000pt" height="2500.000000pt" viewBox="0 0 2500.000000 2500.000000"
 preserveAspectRatio="xMidYMid meet">
<metadata>
Created by potrace 1.14, written by Peter Selinger 2001-2017
</metadata>
<g transform="translate(0.000000,2500.000000) scale(0.100000,-0.100000)"
fill="#000000" stroke="none">
<path d="M8468 24375 c-2 -1 -32 -6 -68 -9 -91 -9 -101 -11 -305 -50 -95 -18
-309 -95 -457 -165 -98 -46 -344 -196 -378 -231 -3 -3 -27 -23 -55 -45 -27
-22 -72 -60 -99 -85 -76 -70 -674 -669 -749 -750 -174 -187 -347 -464 -431
-690 -15 -41 -34 -91 -41 -110 -34 -84 -81 -294 -100 -440 -15 -120 -20 -358
-10 -460 48 -471 198 -843 487 -1212 40 -51 75 -95 78 -98 3 -3 111 -138 240
-300 129 -162 237 -297 240 -300 3 -3 39 -48 80 -100 41 -52 77 -97 80 -100 3
-3 255 -318 560 -700 305 -382 557 -697 560 -700 3 -3 39 -48 80 -100 41 -52
77 -97 80 -100 3 -3 75 -93 160 -200 85 -107 157 -197 160 -200 3 -3 327 -408
720 -900 393 -492 717 -897 720 -900 3 -3 39 -48 80 -100 41 -52 83 -104 92
-115 9 -11 81 -101 160 -200 78 -99 147 -185 153 -191 5 -6 24 -28 40 -49 17
-21 214 -268 439 -549 343 -430 468 -596 563 -751 68 -110 176 -379 218 -543
56 -215 70 -343 69 -597 -1 -354 -71 -646 -229 -970 -91 -185 -210 -362 -361
-535 -12 -14 -50 -59 -84 -100 -34 -41 -69 -84 -79 -95 -9 -11 -95 -114 -191
-230 -96 -115 -177 -212 -180 -215 -3 -3 -25 -30 -50 -60 -25 -30 -47 -57 -50
-60 -3 -3 -70 -84 -150 -180 -80 -96 -147 -177 -150 -180 -3 -3 -25 -30 -50
-60 -25 -30 -47 -57 -50 -60 -3 -3 -35 -41 -70 -85 -36 -44 -68 -82 -71 -85
-3 -3 -311 -372 -684 -820 -374 -448 -681 -817 -684 -820 -4 -3 -24 -27 -46
-55 -21 -27 -42 -52 -45 -55 -4 -4 -185 -220 -322 -385 -9 -11 -45 -54 -80
-95 -34 -42 -81 -98 -103 -124 -22 -27 -78 -95 -125 -150 -47 -56 -103 -124
-125 -150 -75 -91 -317 -381 -339 -406 -123 -143 -1237 -1486 -1286 -1551
-185 -247 -332 -578 -394 -889 -113 -565 -9 -1147 289 -1630 64 -102 170 -245
234 -314 127 -137 777 -778 853 -841 297 -250 726 -445 1078 -491 19 -3 46 -7
60 -9 50 -9 198 -18 295 -18 102 0 283 11 294 17 3 2 29 7 56 10 171 20 423
97 610 185 264 126 493 291 679 490 23 24 52 55 66 70 14 14 88 98 165 186 77
88 154 176 171 195 17 19 53 60 80 90 104 118 179 204 189 214 9 9 127 144
256 290 215 244 287 327 318 362 20 22 63 71 96 109 33 38 71 80 83 94 13 14
47 53 75 85 29 33 57 64 62 70 6 6 62 70 125 141 63 72 119 135 125 141 5 6
33 37 60 70 28 32 57 65 65 74 8 9 44 49 80 90 36 41 70 80 75 86 13 14 120
135 180 204 27 30 51 57 54 60 3 3 35 39 71 80 71 82 119 137 135 154 6 6 42
47 80 91 38 44 72 82 75 85 3 3 89 100 190 215 102 116 189 215 195 221 5 6
37 42 70 80 33 37 98 111 145 164 47 53 114 129 150 169 36 41 74 84 85 97 11
12 31 35 45 51 14 16 73 82 131 148 58 66 116 133 130 148 13 16 35 41 49 56
26 28 138 154 172 193 11 13 41 48 68 78 27 30 57 64 67 76 10 12 47 54 83 95
171 194 310 351 360 408 30 35 62 71 71 80 9 9 67 75 129 146 62 72 116 132
119 135 3 3 71 79 151 170 80 91 157 179 172 195 14 17 35 39 45 51 67 77 154
176 299 340 49 55 114 129 144 163 30 35 66 76 80 91 14 15 52 58 85 95 33 38
71 80 84 94 13 14 44 50 70 80 25 30 62 73 82 95 42 47 493 559 578 655 31 35
61 69 67 75 6 6 45 51 87 100 43 48 83 94 90 100 7 7 35 39 62 71 28 32 55 63
60 69 15 15 251 283 302 342 10 12 48 54 84 95 61 68 286 322 333 378 12 13
26 29 31 35 6 6 42 47 80 91 39 44 72 82 75 85 7 7 139 156 176 199 16 18 40
46 54 61 14 15 52 58 85 96 33 37 67 76 77 85 41 43 172 214 221 290 172 265
295 582 337 869 6 41 13 89 16 105 3 17 7 118 9 225 3 186 -7 310 -34 450 -6
30 -13 66 -16 79 -25 128 -107 354 -185 510 -104 206 -179 311 -419 591 -68
80 -145 169 -170 199 -25 30 -51 59 -56 65 -6 6 -121 139 -255 296 -134 157
-267 312 -295 345 -29 33 -112 130 -185 215 -73 85 -144 169 -158 185 -15 17
-82 95 -150 175 -68 80 -136 159 -151 175 -21 23 -506 589 -583 680 -9 11 -27
31 -39 45 -12 14 -54 63 -93 110 -39 47 -76 90 -82 95 -6 6 -51 57 -100 115
-48 58 -91 107 -94 110 -3 3 -30 34 -60 70 -65 76 -101 119 -115 134 -6 6 -46
54 -90 106 -44 52 -85 100 -91 105 -5 6 -35 39 -65 75 -30 36 -66 78 -80 95
-15 16 -89 102 -164 190 -156 181 -148 172 -274 320 -51 61 -106 124 -120 140
-14 17 -107 125 -206 240 -99 116 -189 221 -201 235 -12 14 -57 66 -99 115
-43 50 -89 104 -104 120 -14 17 -78 91 -141 165 -63 74 -117 137 -120 140 -3
3 -59 68 -124 145 -66 77 -124 145 -130 150 -6 6 -29 33 -51 60 -22 28 -45 55
-51 60 -6 6 -35 39 -65 75 -30 36 -56 67 -59 70 -3 3 -73 84 -155 180 -82 96
-154 180 -160 186 -5 6 -30 35 -55 64 -50 60 -108 127 -128 149 -7 7 -57 66
-112 130 -54 64 -133 157 -175 206 -43 50 -99 115 -124 144 -25 30 -66 78 -91
106 -25 28 -56 65 -70 81 -14 16 -50 58 -81 94 -31 36 -67 78 -80 94 -13 16
-29 34 -34 40 -6 6 -35 40 -65 76 -30 36 -57 67 -61 70 -3 3 -155 181 -339
395 -423 494 -456 532 -494 576 -17 19 -52 60 -77 90 -156 183 -322 377 -338
394 -21 24 -441 515 -456 533 -5 7 -19 23 -31 35 -11 12 -47 53 -80 92 -32 38
-63 75 -69 81 -5 6 -30 35 -55 64 -286 342 -489 515 -781 669 -147 77 -397
172 -515 195 -10 2 -53 11 -94 19 -41 9 -95 19 -120 22 -25 3 -61 8 -80 11
-36 5 -397 13 -402 9z"/>
</g>
</svg>
